<svg width="455" height="455" xmlns="http://www.w3.org/2000/svg" xmlns:xlink="http://www.w3.org/1999/xlink" xml:space="preserve" overflow="hidden"><g><path d="M227.5 118.49C167.307 118.49 112.802 143.135 73.4635 182.474L100.479 209.49C132.708 176.786 177.734 156.406 227.5 156.406 277.266 156.406 322.292 176.786 354.995 209.016L382.01 182C341.724 143.135 287.693 118.49 227.5 118.49Z" fill="#B70E0C"/><path d="M113.75 222.76 140.766 249.776C162.094 227.026 193.375 213.281 227.5 213.281 261.625 213.281 292.432 227.026 314.708 249.302L341.25 222.76C311.865 193.375 271.578 175.365 227.5 175.365 183.422 175.365 142.661 193.375 113.75 222.76Z" fill="#B70E0C"/><path d="M154.036 263.047 181.052 290.062C192.901 278.214 209.49 270.63 227.974 270.63 246.458 270.63 263.047 278.214 274.896 290.062L301.911 263.047C282.953 244.089 256.885 232.24 228.448 232.24 200.01 232.24 172.521 244.089 154.036 263.047Z" fill="#B70E0C"/><path d="M193.849 302.859 227.5 336.51 261.151 302.859C252.146 294.328 240.771 289.115 227.5 289.115 214.229 289.115 202.38 294.328 193.849 302.859Z" fill="#B70E0C"/></g></svg>