<svg width="596" height="596" xmlns="http://www.w3.org/2000/svg" xmlns:xlink="http://www.w3.org/1999/xlink" xml:space="preserve" overflow="hidden"><g><path d="M530.812 469.35 453.208 391.746C442.654 381.192 428.375 377.467 414.717 379.95L387.4 352.633C411.613 321.592 425.892 281.858 425.892 239.642 425.892 137.204 342.079 53.3917 239.642 53.3917 137.204 53.3917 53.3917 137.204 53.3917 239.642 53.3917 342.079 137.204 425.892 239.642 425.892 281.858 425.892 320.971 411.613 352.633 387.4L379.95 414.717C377.467 428.375 381.192 442.654 391.746 453.208L469.35 530.812C478.042 539.504 489.217 543.85 500.392 543.85 511.567 543.85 522.742 539.504 531.433 530.812 547.575 513.429 547.575 486.113 530.812 469.35ZM239.021 388.021C157.071 388.021 90.0208 320.971 90.0208 239.021 90.0208 157.071 157.071 90.0208 239.021 90.0208 320.971 90.0208 388.021 157.071 388.021 239.021 388.021 320.971 320.971 388.021 239.021 388.021Z" fill="#B70E0C"/></g></svg>