<svg width="566" height="566" xmlns="http://www.w3.org/2000/svg" xmlns:xlink="http://www.w3.org/1999/xlink" xml:space="preserve" overflow="hidden"><g><path d="M283 58.9583C159.188 58.9583 58.9583 159.188 58.9583 283 58.9583 406.812 159.188 507.042 283 507.042 406.812 507.042 507.042 406.812 507.042 283 507.042 159.188 406.812 58.9583 283 58.9583ZM129.708 283C129.708 253.521 137.962 225.81 152.702 202.817L363.773 413.887C340.19 428.038 312.479 436.292 283 436.292 198.69 436.292 129.708 367.31 129.708 283ZM413.298 363.183 202.817 152.702C225.81 137.962 253.521 129.708 283 129.708 367.31 129.708 436.292 198.69 436.292 283 436.292 312.479 428.038 340.19 413.298 363.183Z" fill="#B70E0C"/></g></svg>