<svg width="479" height="479" xmlns="http://www.w3.org/2000/svg" xmlns:xlink="http://www.w3.org/1999/xlink" xml:space="preserve" overflow="hidden"><g><path d="M264.697 394.177 234.76 394.177C234.87 306.868 305.62 236.117 392.93 236.007L392.93 265.945C322.143 266.027 264.78 323.39 264.697 394.177Z" fill="#B70E0C"/><path d="M186.61 394.177 156.673 394.177C156.92 263.831 262.583 158.257 392.93 158.12L392.93 188.057C279.117 188.195 186.858 280.365 186.61 394.177Z" fill="#B70E0C"/><path d="M108.523 394.177 78.5859 394.177C78.7785 220.65 219.402 80.0259 392.93 79.8333L392.93 109.771C235.925 109.936 108.689 237.172 108.523 394.177Z" fill="#B70E0C"/><path d="M392.93 355.308C392.93 376.885 375.438 394.377 353.861 394.377 332.284 394.377 314.793 376.885 314.793 355.308 314.793 333.731 332.284 316.24 353.861 316.24 375.438 316.24 392.93 333.731 392.93 355.308Z" fill="#B70E0C"/></g></svg>